<svg width="116" height="32" viewBox="0 0 116 32" fill="none" xmlns="http://www.w3.org/2000/svg">
<path fill-rule="evenodd" clip-rule="evenodd" d="M0 16C0 7.16344 7.08483 0 15.8244 0C24.564 0 31.6488 7.16344 31.6488 16C31.6488 24.8366 24.564 32 15.8244 32C7.08483 32 0 24.8366 0 16ZM17.5613 16.3466L13.044 20.4585L14.3063 14.4517C14.887 14.7033 15.4502 14.9861 15.9891 15.3007L15.9901 15.3012C16.5347 15.6185 17.0587 15.9686 17.5613 16.3466ZM21.2912 16.3152L25.7831 12.2264L24.1288 10.3685L19.4308 14.6448C18.7367 14.0946 18.0011 13.5875 17.2249 13.1353C16.458 12.6876 15.6545 12.2985 14.8289 11.9649L16.1439 5.70725L13.7254 5.18765L12.4675 11.1732C10.9325 10.7564 9.36902 10.5105 7.85999 10.4189L7.71184 12.9144C9.11436 12.9996 10.5552 13.2328 11.9528 13.6225L9.83479 23.7011L11.8712 24.8899L19.4508 17.9905C20.4819 19.0192 21.3922 20.1618 22.1716 21.3554L24.235 19.978C23.3982 18.6965 22.4153 17.452 21.2912 16.3152ZM75.046 0C71.2579 0 68.7325 2.55556 68.7325 6.3463V8.85927H65.4074V12.3092H68.7325V30.2407H72.7731V12.3092L81.2199 12.3102V30.2407H85.2605V8.85927H72.7731V6.13333C72.7731 4.47222 73.6991 3.40739 75.0881 3.40739C75.9716 3.40739 76.6028 3.83301 77.1078 4.51405L79.4187 2.17746C78.4394 0.782932 76.8877 0 75.046 0ZM58.7877 30.2407V0.425917H62.8283V30.2407H58.7877ZM51.0237 30.2407V26.6204C49.7189 29.2185 47.404 30.6667 44.3735 30.6667C40.4171 30.6667 37.6813 28.2815 37.6813 24.5333C37.6813 21.0833 39.912 19.0389 45.047 18.0592L50.7712 17.0371C50.6449 13.8426 48.7088 11.9259 45.7625 11.9259C42.732 11.9259 41.0484 13.5444 40.2066 16.5685L36.9236 15.5889C37.7234 11.2871 41.1747 8.30556 45.9309 8.30556C51.3604 8.30556 54.7697 11.7982 54.7697 16.9519V30.2407H51.0237ZM41.7218 24.6185C41.7218 26.5778 43.195 27.6852 45.1732 27.6852C48.4142 27.6852 50.7712 24.7889 50.7712 20.7426V20.0611L46.4359 20.913C43.2371 21.5519 41.7218 22.5315 41.7218 24.6185ZM89.2793 8.85927V30.2407H93.32V20.0185C93.32 14.5241 96.0137 11.7982 99.3809 11.7982C102.285 11.7982 104.095 13.8426 104.095 17.2074V30.2407H108.136V16.6963C108.136 11.5426 105.021 8.30556 100.349 8.30556C97.2343 8.30556 94.7931 9.7111 93.32 12.5222V8.85927H89.2793ZM83.2671 0.926487L80.2297 3.99753L83.2671 7.0686L86.3044 3.99753L83.2671 0.926487Z" fill="white"/>
</svg>
