<svg width="64" height="40" viewBox="0 0 64 40" fill="none" xmlns="http://www.w3.org/2000/svg">
<g clip-path="url(#clip0_1_1679)">
<path d="M58.2686 0H5.7315C5.51269 0 5.29349 0 5.07507 0.00124569C4.89044 0.00252913 4.70623 0.00452979 4.52203 0.00943707C4.12029 0.0200443 3.71511 0.043184 3.3184 0.112792C2.91535 0.183608 2.54029 0.299117 2.1744 0.480989C1.81469 0.659576 1.48537 0.893162 1.19999 1.1719C0.914475 1.45063 0.675211 1.7716 0.492322 2.12315C0.305992 2.48036 0.187597 2.84664 0.115563 3.24043C0.0438802 3.62784 0.0200196 4.02332 0.00919317 4.41511C0.00424396 4.59495 0.0021212 4.77478 0.000918699 4.95457C-0.000357272 5.16827 6.80518e-05 5.38181 6.80518e-05 5.59588V34.4045C6.80518e-05 34.6186 -0.000357272 34.8318 0.000918699 35.0459C0.0021212 35.2257 0.00424396 35.4055 0.00919317 35.5853C0.0200196 35.9768 0.0438802 36.3723 0.115563 36.7596C0.187597 37.1535 0.305992 37.5196 0.492322 37.8769C0.675211 38.2284 0.914475 38.5498 1.19999 38.8281C1.48537 39.1073 1.81469 39.3409 2.1744 39.519C2.54029 39.7014 2.91535 39.8169 3.3184 39.8877C3.71511 39.9569 4.12029 39.9804 4.52203 39.991C4.70623 39.9951 4.89044 39.9975 5.07507 39.9983C5.29349 40 5.51269 40 5.7315 40H58.2686C58.487 40 58.7062 40 58.9246 39.9983C59.1088 39.9975 59.293 39.9951 59.478 39.991C59.8789 39.9804 60.284 39.9569 60.6817 39.8877C61.0842 39.8169 61.4593 39.7014 61.8253 39.519C62.1854 39.3409 62.5137 39.1073 62.7997 38.8281C63.0847 38.5498 63.324 38.2284 63.5074 37.8769C63.6941 37.5196 63.8124 37.1535 63.8841 36.7596C63.9558 36.3723 63.9791 35.9768 63.9899 35.5853C63.995 35.4055 63.9974 35.2257 63.9983 35.0459C64 34.8318 64 34.6186 64 34.4045V5.59588C64 5.38181 64 5.16827 63.9983 4.95457C63.9974 4.77478 63.995 4.59495 63.9899 4.41511C63.9791 4.02332 63.9558 3.62784 63.8841 3.24043C63.8124 2.84664 63.6941 2.48036 63.5074 2.12315C63.324 1.7716 63.0847 1.45063 62.7997 1.1719C62.5137 0.893162 62.1854 0.659576 61.8253 0.480989C61.4593 0.299117 61.0842 0.183608 60.6817 0.112792C60.284 0.043184 59.8789 0.0200443 59.478 0.00943707C59.293 0.00452979 59.1088 0.00252913 58.9246 0.00124569C58.7062 0 58.487 0 58.2686 0Z" fill="white"/>
<path d="M90.9029 -2L91.5492 -1.99879C91.7242 -1.99758 91.8993 -1.99573 92.0754 -1.99105C92.3816 -1.98298 92.7398 -1.96678 93.0738 -1.90835C93.364 -1.85731 93.6075 -1.7797 93.8411 -1.66359C94.0717 -1.54917 94.283 -1.39924 94.4675 -1.21937C94.6528 -1.03829 94.8065 -0.831653 94.9253 -0.603993C95.0435 -0.377692 95.1225 -0.141162 95.1745 0.144291C95.2342 0.466737 95.2507 0.817418 95.2591 1.11823C95.2638 1.28803 95.2661 1.45782 95.267 1.63165C95.2687 1.84187 95.2686 2.05198 95.2686 2.26261V31.0713C95.2686 31.2819 95.2687 31.4916 95.267 31.7063C95.2661 31.8761 95.2638 32.0459 95.2591 32.216C95.2507 32.5163 95.2342 32.8668 95.1738 33.1931C95.1225 33.4746 95.0436 33.7112 94.9247 33.9386C94.8063 34.1657 94.6527 34.3721 94.4683 34.5521C94.2828 34.7333 94.0721 34.8827 93.8388 34.9982C93.6069 35.1138 93.3639 35.1913 93.0765 35.2418C92.7358 35.3011 92.3625 35.3174 92.0814 35.3248C91.9046 35.3287 91.7286 35.331 91.5483 35.3319C91.3334 35.3335 91.1178 35.3335 90.9029 35.3335H38.3658C38.3629 35.3335 38.3601 35.3335 38.3572 35.3335C38.1448 35.3335 37.932 35.3335 37.7157 35.3318C37.5393 35.331 37.3633 35.3287 37.1932 35.325C36.9057 35.3174 36.5322 35.3011 36.1943 35.2422C35.9044 35.1913 35.6614 35.1138 35.4265 34.9967C35.1953 34.8823 34.9849 34.7329 34.7992 34.5514C34.615 34.3719 34.4619 34.1661 34.3436 33.9387C34.2251 33.7115 34.1458 33.4742 34.0937 33.1893C34.0335 32.8637 34.0169 32.5146 34.0087 32.2162C34.0039 32.0454 34.002 31.8747 34.0009 31.7049L34 31.2036L34 31.0713V2.26261L34 2.13027L34.0008 1.63006C34.002 1.45925 34.0039 1.28848 34.0087 1.11782C34.0169 0.819193 34.0335 0.469945 34.0942 0.141611C34.1459 -0.140708 34.2251 -0.377994 34.3442 -0.606334C34.4616 -0.832031 34.615 -1.03806 34.8002 -1.2188C34.9846 -1.39893 35.1957 -1.54868 35.4284 -1.66419C35.6608 -1.77974 35.9043 -1.85731 36.1942 -1.90823C36.5282 -1.96682 36.8866 -1.98298 37.1936 -1.99109C37.3686 -1.99573 37.5436 -1.99758 37.7173 -1.99875L38.3658 -2H90.9029Z" fill="white"/>
<path d="M17.4717 13.4537C18.0196 12.7846 18.3915 11.8861 18.2934 10.968C17.4913 11.0069 16.5124 11.4846 15.9456 12.1543C15.4368 12.7278 14.9864 13.6639 15.1038 14.5435C16.0043 14.6198 16.9039 14.1041 17.4717 13.4537Z" fill="black"/>
<path d="M18.2831 14.7152C16.9754 14.6392 15.8635 15.4398 15.239 15.4398C14.6142 15.4398 13.6578 14.7536 12.6235 14.7721C11.2773 14.7914 10.0281 15.5345 9.34492 16.7164C7.93976 19.0808 8.9741 22.588 10.3405 24.5137C11.0041 25.4664 11.8038 26.5154 12.8576 26.4777C13.8532 26.4396 14.2435 25.8483 15.4537 25.8483C16.663 25.8483 17.0145 26.4777 18.0685 26.4586C19.1614 26.4395 19.8447 25.5055 20.5083 24.5518C21.2695 23.4658 21.5811 22.4172 21.6007 22.3596C21.5811 22.3405 19.4932 21.5586 19.4739 19.2138C19.4541 17.2505 21.1131 16.3167 21.1912 16.2588C20.2543 14.9061 18.7906 14.7536 18.2831 14.7152Z" fill="black"/>
<path d="M29.4919 12C32.3342 12 34.3134 13.9127 34.3134 16.6975C34.3134 19.4923 32.2935 21.415 29.4207 21.415H26.2737V26.3008H24V12L29.4919 12ZM26.2737 19.5517H28.8826C30.8622 19.5517 31.9888 18.5113 31.9888 16.7075C31.9888 14.9039 30.8622 13.8732 28.8928 13.8732H26.2737V19.5517Z" fill="black"/>
<path d="M34.9075 23.3376C34.9075 21.514 36.3388 20.3942 38.8768 20.2554L41.8002 20.087V19.2843C41.8002 18.1247 40.9982 17.431 39.6585 17.431C38.3893 17.431 37.5974 18.0255 37.4048 18.9572H35.3339C35.4557 17.0741 37.1001 15.6867 39.7395 15.6867C42.3281 15.6867 43.9826 17.0246 43.9826 19.1157V26.3008H41.8813V24.5863H41.8307C41.2116 25.7459 39.8613 26.4792 38.4605 26.4792C36.3693 26.4792 34.9075 25.2106 34.9075 23.3376ZM41.8002 22.3962V21.5736L39.1709 21.7321C37.8614 21.8214 37.1205 22.3863 37.1205 23.2782C37.1205 24.1898 37.8919 24.7845 39.0695 24.7845C40.6023 24.7845 41.8002 23.7538 41.8002 22.3962Z" fill="black"/>
<path d="M45.9667 30.1362V28.4018C46.1288 28.4414 46.4942 28.4414 46.6771 28.4414C47.6921 28.4414 48.2404 28.0252 48.5752 26.955C48.5752 26.9351 48.7682 26.3207 48.7682 26.3107L44.9109 15.875H47.286L49.9865 24.3584H50.0269L52.7274 15.875H55.0418L51.0419 26.8458C50.1287 29.3731 49.0729 30.1857 46.8599 30.1857C46.6771 30.1857 46.1288 30.1658 45.9667 30.1362Z" fill="black"/>
</g>
<defs>
<clipPath id="clip0_1_1679">
<rect width="64" height="40" rx="4" fill="white"/>
</clipPath>
</defs>
</svg>
